<svg width="438" height="182" viewBox="0 0 438 182" fill="none" xmlns="http://www.w3.org/2000/svg">
<g filter="url(#filter0_f_155_754)">
<path d="M71.664 93.64C68.592 93.64 65.7333 93.128 63.088 92.104C60.4853 91.08 58.224 89.6507 56.304 87.816C54.384 85.9387 52.8693 83.7413 51.76 81.224C50.6933 78.7067 50.16 75.9547 50.16 72.968C50.16 69.6827 50.7573 66.6533 51.952 63.88C53.1893 61.1067 54.8747 58.696 57.008 56.648C59.1413 54.5573 61.5947 52.9573 64.368 51.848C67.1413 50.696 70.1067 50.12 73.264 50.12C75.5253 50.12 77.4453 50.248 79.024 50.504C80.6027 50.76 82.0107 51.1227 83.248 51.592C84.528 52.0613 85.7653 52.5947 86.96 53.192L87.344 63.944H86.32L81.712 56.264C80.048 55.1547 78.6187 54.3867 77.424 53.96C76.2293 53.5333 74.8427 53.32 73.264 53.32C70.1067 53.32 67.2907 54.0453 64.816 55.496C62.3413 56.9467 60.4 58.952 58.992 61.512C57.584 64.072 56.88 66.9947 56.88 70.28C56.88 74.4187 57.6267 77.96 59.12 80.904C60.6133 83.848 62.5973 86.1093 65.072 87.688C67.5893 89.224 70.4053 89.992 73.52 89.992C74.7573 89.992 75.9733 89.928 77.168 89.8C78.4053 89.6293 79.6427 89.3307 80.88 88.904V77.96L75.184 75.336V74.312H92.08V75.336L87.6 78.152V88.264C86.32 89.3733 84.784 90.3333 82.992 91.144C81.2 91.912 79.3227 92.5307 77.36 93C75.3973 93.4267 73.4987 93.64 71.664 93.64ZM354.778 93V91.976L359.962 89.416V54.344L354.778 51.784V50.76H372.506V51.784L366.682 54.344V89.48H381.85L386.394 78.472H387.418V93H354.778Z" fill="black"/>
</g>
<g filter="url(#filter1_f_155_754)">
<path d="M138.248 131.24L129.32 101.864L125.672 100.088V99.32H138.584V100.088L134.504 101.864L140.36 122.12H140.648L148.952 99.08H150.968L159.416 122.12H159.704L165.512 101.912L161.432 100.088V99.32H172.088V100.088L168.872 101.816L159.848 131.24H157.88L149.24 108.248H148.904L140.168 131.24H138.248ZM199.838 131V130.232L203.006 128.648V106.472L199.838 104.888V104.12H211.118V104.888L207.806 106.472V128.648L211.118 130.232V131H199.838ZM241.083 131V130.232L244.587 128.648V106.472L241.083 104.888V104.12H252.795V104.888L249.339 106.472V128.648L252.795 130.232V131H241.083ZM262.203 131L249.339 117.32L260.475 106.232L257.451 104.888V104.12H267.099V104.888L264.363 105.944L254.043 115.832L266.427 128.936L269.787 130.232V131H262.203ZM298.322 131V130.232L301.49 128.648V106.472L298.322 104.888V104.12H309.602V104.888L306.29 106.472V128.648L309.602 130.232V131H298.322Z" fill="black"/>
</g>
<g filter="url(#filter2_f_155_754)">
<path d="M97.84 87V85.976L102.512 83.864V54.296L97.84 52.184V51.16H113.328C117.253 51.16 120.347 51.9707 122.608 53.592C124.912 55.1707 126.064 57.368 126.064 60.184C126.064 62.232 125.424 64.0027 124.144 65.496C122.907 66.9467 121.115 68.0987 118.768 68.952L128.624 83.992L132.848 85.976V87H122.8L112.688 70.68H108.784V83.8L113.008 85.976V87H97.84ZM111.792 54.296H108.784V67.544H112.048C114.352 67.544 116.165 66.9467 117.488 65.752C118.811 64.5573 119.472 62.936 119.472 60.888C119.472 58.712 118.789 57.0693 117.424 55.96C116.101 54.8507 114.224 54.296 111.792 54.296ZM136.534 87V85.976L140.758 83.864V54.296L136.534 52.184V51.16H151.574V52.184L147.158 54.296V83.864L151.574 85.976V87H136.534ZM159.272 87V85.976L163.816 83.864L165.032 54.296L160.104 52.184V51.16H172.456L184.168 77.4L196.264 51.16H208.04V52.184L203.304 53.912L204.2 83.864L208.296 85.976V87H193.448V85.976L197.736 83.928L197.16 57.368L183.4 87.256H181.48L168.296 57.432L167.656 83.928L172.328 85.976V87H159.272ZM243.171 87.64C240.867 87.64 238.862 87.4053 237.155 86.936C235.491 86.4667 233.806 85.8053 232.099 84.952L231.523 76.248H232.547L235.875 82.2C237.027 83.096 238.243 83.7147 239.523 84.056C240.803 84.3973 242.104 84.568 243.427 84.568C245.774 84.568 247.587 84.0987 248.867 83.16C250.147 82.2213 250.787 80.7707 250.787 78.808C250.787 77.3573 250.403 76.2267 249.635 75.416C248.867 74.6053 247.715 73.8587 246.179 73.176C244.643 72.4507 242.744 71.5547 240.483 70.488C237.795 69.208 235.854 67.8853 234.659 66.52C233.464 65.112 232.867 63.2347 232.867 60.888C232.867 59.0107 233.4 57.2827 234.467 55.704C235.576 54.1253 237.027 52.8667 238.819 51.928C240.654 50.9467 242.638 50.456 244.771 50.456C246.606 50.456 248.291 50.6907 249.827 51.16C251.363 51.5867 252.835 52.1627 254.243 52.888L254.755 61.272H253.731L250.787 55.64C249.038 54.232 247.075 53.528 244.899 53.528C242.851 53.528 241.23 54.04 240.035 55.064C238.883 56.0453 238.307 57.3893 238.307 59.096C238.307 60.2053 238.584 61.144 239.139 61.912C239.694 62.6373 240.547 63.3413 241.699 64.024C242.894 64.664 244.408 65.432 246.243 66.328C248.632 67.48 250.552 68.5467 252.003 69.528C253.454 70.5093 254.499 71.6187 255.139 72.856C255.822 74.0507 256.163 75.5653 256.163 77.4C256.163 79.4053 255.587 81.176 254.435 82.712C253.326 84.248 251.79 85.464 249.827 86.36C247.864 87.2133 245.646 87.64 243.171 87.64ZM282.406 87.64C278.822 87.64 275.643 86.8507 272.87 85.272C270.097 83.6507 267.899 81.4533 266.278 78.68C264.699 75.864 263.91 72.664 263.91 69.08C263.91 65.496 264.699 62.296 266.278 59.48C267.899 56.664 270.097 54.4667 272.87 52.888C275.643 51.2667 278.822 50.456 282.406 50.456C285.99 50.456 289.169 51.2667 291.942 52.888C294.758 54.4667 296.955 56.664 298.534 59.48C300.155 62.296 300.966 65.496 300.966 69.08C300.966 72.664 300.155 75.864 298.534 78.68C296.955 81.4533 294.758 83.6507 291.942 85.272C289.169 86.8507 285.99 87.64 282.406 87.64ZM283.43 84.44C286.886 84.44 289.595 83.1813 291.558 80.664C293.521 78.1467 294.502 74.8187 294.502 70.68C294.502 67.3093 293.947 64.344 292.838 61.784C291.771 59.224 290.257 57.24 288.294 55.832C286.331 54.3813 284.091 53.656 281.574 53.656C278.161 53.656 275.43 54.9147 273.382 57.432C271.377 59.9067 270.374 63.192 270.374 67.288C270.374 70.7013 270.929 73.688 272.038 76.248C273.147 78.808 274.683 80.8133 276.646 82.264C278.609 83.7147 280.87 84.44 283.43 84.44ZM328.435 87.64C325.491 87.64 322.845 87.1707 320.499 86.232C318.195 85.2507 316.381 83.6933 315.059 81.56C313.736 79.384 313.075 76.5253 313.075 72.984V54.296L308.403 52.184V51.16H324.083V52.184L319.411 54.296V72.664C319.411 76.9307 320.349 79.896 322.227 81.56C324.104 83.224 326.621 84.056 329.779 84.056C331.613 84.056 333.277 83.7147 334.771 83.032C336.307 82.3067 337.523 81.2187 338.419 79.768C339.315 78.2747 339.763 76.376 339.763 74.072V54.168L334.387 52.184V51.16H348.083V52.184L343.539 54.232V73.112C343.539 76.568 342.899 79.3627 341.619 81.496C340.339 83.6293 338.568 85.1867 336.307 86.168C334.045 87.1493 331.421 87.64 328.435 87.64Z" fill="black"/>
</g>
<g filter="url(#filter3_f_155_754)">
<path d="M97.84 87V85.976L102.512 83.864V54.296L97.84 52.184V51.16H113.328C117.253 51.16 120.347 51.9707 122.608 53.592C124.912 55.1707 126.064 57.368 126.064 60.184C126.064 62.232 125.424 64.0027 124.144 65.496C122.907 66.9467 121.115 68.0987 118.768 68.952L128.624 83.992L132.848 85.976V87H122.8L112.688 70.68H108.784V83.8L113.008 85.976V87H97.84ZM111.792 54.296H108.784V67.544H112.048C114.352 67.544 116.165 66.9467 117.488 65.752C118.811 64.5573 119.472 62.936 119.472 60.888C119.472 58.712 118.789 57.0693 117.424 55.96C116.101 54.8507 114.224 54.296 111.792 54.296ZM136.534 87V85.976L140.758 83.864V54.296L136.534 52.184V51.16H151.574V52.184L147.158 54.296V83.864L151.574 85.976V87H136.534ZM159.272 87V85.976L163.816 83.864L165.032 54.296L160.104 52.184V51.16H172.456L184.168 77.4L196.264 51.16H208.04V52.184L203.304 53.912L204.2 83.864L208.296 85.976V87H193.448V85.976L197.736 83.928L197.16 57.368L183.4 87.256H181.48L168.296 57.432L167.656 83.928L172.328 85.976V87H159.272ZM243.171 87.64C240.867 87.64 238.862 87.4053 237.155 86.936C235.491 86.4667 233.806 85.8053 232.099 84.952L231.523 76.248H232.547L235.875 82.2C237.027 83.096 238.243 83.7147 239.523 84.056C240.803 84.3973 242.104 84.568 243.427 84.568C245.774 84.568 247.587 84.0987 248.867 83.16C250.147 82.2213 250.787 80.7707 250.787 78.808C250.787 77.3573 250.403 76.2267 249.635 75.416C248.867 74.6053 247.715 73.8587 246.179 73.176C244.643 72.4507 242.744 71.5547 240.483 70.488C237.795 69.208 235.854 67.8853 234.659 66.52C233.464 65.112 232.867 63.2347 232.867 60.888C232.867 59.0107 233.4 57.2827 234.467 55.704C235.576 54.1253 237.027 52.8667 238.819 51.928C240.654 50.9467 242.638 50.456 244.771 50.456C246.606 50.456 248.291 50.6907 249.827 51.16C251.363 51.5867 252.835 52.1627 254.243 52.888L254.755 61.272H253.731L250.787 55.64C249.038 54.232 247.075 53.528 244.899 53.528C242.851 53.528 241.23 54.04 240.035 55.064C238.883 56.0453 238.307 57.3893 238.307 59.096C238.307 60.2053 238.584 61.144 239.139 61.912C239.694 62.6373 240.547 63.3413 241.699 64.024C242.894 64.664 244.408 65.432 246.243 66.328C248.632 67.48 250.552 68.5467 252.003 69.528C253.454 70.5093 254.499 71.6187 255.139 72.856C255.822 74.0507 256.163 75.5653 256.163 77.4C256.163 79.4053 255.587 81.176 254.435 82.712C253.326 84.248 251.79 85.464 249.827 86.36C247.864 87.2133 245.646 87.64 243.171 87.64ZM282.406 87.64C278.822 87.64 275.643 86.8507 272.87 85.272C270.097 83.6507 267.899 81.4533 266.278 78.68C264.699 75.864 263.91 72.664 263.91 69.08C263.91 65.496 264.699 62.296 266.278 59.48C267.899 56.664 270.097 54.4667 272.87 52.888C275.643 51.2667 278.822 50.456 282.406 50.456C285.99 50.456 289.169 51.2667 291.942 52.888C294.758 54.4667 296.955 56.664 298.534 59.48C300.155 62.296 300.966 65.496 300.966 69.08C300.966 72.664 300.155 75.864 298.534 78.68C296.955 81.4533 294.758 83.6507 291.942 85.272C289.169 86.8507 285.99 87.64 282.406 87.64ZM283.43 84.44C286.886 84.44 289.595 83.1813 291.558 80.664C293.521 78.1467 294.502 74.8187 294.502 70.68C294.502 67.3093 293.947 64.344 292.838 61.784C291.771 59.224 290.257 57.24 288.294 55.832C286.331 54.3813 284.091 53.656 281.574 53.656C278.161 53.656 275.43 54.9147 273.382 57.432C271.377 59.9067 270.374 63.192 270.374 67.288C270.374 70.7013 270.929 73.688 272.038 76.248C273.147 78.808 274.683 80.8133 276.646 82.264C278.609 83.7147 280.87 84.44 283.43 84.44ZM328.435 87.64C325.491 87.64 322.845 87.1707 320.499 86.232C318.195 85.2507 316.381 83.6933 315.059 81.56C313.736 79.384 313.075 76.5253 313.075 72.984V54.296L308.403 52.184V51.16H324.083V52.184L319.411 54.296V72.664C319.411 76.9307 320.349 79.896 322.227 81.56C324.104 83.224 326.621 84.056 329.779 84.056C331.613 84.056 333.277 83.7147 334.771 83.032C336.307 82.3067 337.523 81.2187 338.419 79.768C339.315 78.2747 339.763 76.376 339.763 74.072V54.168L334.387 52.184V51.16H348.083V52.184L343.539 54.232V73.112C343.539 76.568 342.899 79.3627 341.619 81.496C340.339 83.6293 338.568 85.1867 336.307 86.168C334.045 87.1493 331.421 87.64 328.435 87.64Z" fill="black"/>
</g>
<g filter="url(#filter4_f_155_754)">
<path d="M71.664 93.64C68.592 93.64 65.7333 93.128 63.088 92.104C60.4853 91.08 58.224 89.6507 56.304 87.816C54.384 85.9387 52.8693 83.7413 51.76 81.224C50.6933 78.7067 50.16 75.9547 50.16 72.968C50.16 69.6827 50.7573 66.6533 51.952 63.88C53.1893 61.1067 54.8747 58.696 57.008 56.648C59.1413 54.5573 61.5947 52.9573 64.368 51.848C67.1413 50.696 70.1067 50.12 73.264 50.12C75.5253 50.12 77.4453 50.248 79.024 50.504C80.6027 50.76 82.0107 51.1227 83.248 51.592C84.528 52.0613 85.7653 52.5947 86.96 53.192L87.344 63.944H86.32L81.712 56.264C80.048 55.1547 78.6187 54.3867 77.424 53.96C76.2293 53.5333 74.8427 53.32 73.264 53.32C70.1067 53.32 67.2907 54.0453 64.816 55.496C62.3413 56.9467 60.4 58.952 58.992 61.512C57.584 64.072 56.88 66.9947 56.88 70.28C56.88 74.4187 57.6267 77.96 59.12 80.904C60.6133 83.848 62.5973 86.1093 65.072 87.688C67.5893 89.224 70.4053 89.992 73.52 89.992C74.7573 89.992 75.9733 89.928 77.168 89.8C78.4053 89.6293 79.6427 89.3307 80.88 88.904V77.96L75.184 75.336V74.312H92.08V75.336L87.6 78.152V88.264C86.32 89.3733 84.784 90.3333 82.992 91.144C81.2 91.912 79.3227 92.5307 77.36 93C75.3973 93.4267 73.4987 93.64 71.664 93.64ZM354.778 93V91.976L359.962 89.416V54.344L354.778 51.784V50.76H372.506V51.784L366.682 54.344V89.48H381.85L386.394 78.472H387.418V93H354.778Z" fill="black"/>
</g>
<g filter="url(#filter5_f_155_754)">
<path d="M138.248 131.24L129.32 101.864L125.672 100.088V99.32H138.584V100.088L134.504 101.864L140.36 122.12H140.648L148.952 99.08H150.968L159.416 122.12H159.704L165.512 101.912L161.432 100.088V99.32H172.088V100.088L168.872 101.816L159.848 131.24H157.88L149.24 108.248H148.904L140.168 131.24H138.248ZM199.838 131V130.232L203.006 128.648V106.472L199.838 104.888V104.12H211.118V104.888L207.806 106.472V128.648L211.118 130.232V131H199.838ZM241.083 131V130.232L244.587 128.648V106.472L241.083 104.888V104.12H252.795V104.888L249.339 106.472V128.648L252.795 130.232V131H241.083ZM262.203 131L249.339 117.32L260.475 106.232L257.451 104.888V104.12H267.099V104.888L264.363 105.944L254.043 115.832L266.427 128.936L269.787 130.232V131H262.203ZM298.322 131V130.232L301.49 128.648V106.472L298.322 104.888V104.12H309.602V104.888L306.29 106.472V128.648L309.602 130.232V131H298.322Z" fill="black"/>
</g>
<path d="M97.84 87V85.976L102.512 83.864V54.296L97.84 52.184V51.16H113.328C117.253 51.16 120.347 51.9707 122.608 53.592C124.912 55.1707 126.064 57.368 126.064 60.184C126.064 62.232 125.424 64.0027 124.144 65.496C122.907 66.9467 121.115 68.0987 118.768 68.952L128.624 83.992L132.848 85.976V87H122.8L112.688 70.68H108.784V83.8L113.008 85.976V87H97.84ZM111.792 54.296H108.784V67.544H112.048C114.352 67.544 116.165 66.9467 117.488 65.752C118.811 64.5573 119.472 62.936 119.472 60.888C119.472 58.712 118.789 57.0693 117.424 55.96C116.101 54.8507 114.224 54.296 111.792 54.296ZM136.534 87V85.976L140.758 83.864V54.296L136.534 52.184V51.16H151.574V52.184L147.158 54.296V83.864L151.574 85.976V87H136.534ZM159.272 87V85.976L163.816 83.864L165.032 54.296L160.104 52.184V51.16H172.456L184.168 77.4L196.264 51.16H208.04V52.184L203.304 53.912L204.2 83.864L208.296 85.976V87H193.448V85.976L197.736 83.928L197.16 57.368L183.4 87.256H181.48L168.296 57.432L167.656 83.928L172.328 85.976V87H159.272ZM243.171 87.64C240.867 87.64 238.862 87.4053 237.155 86.936C235.491 86.4667 233.806 85.8053 232.099 84.952L231.523 76.248H232.547L235.875 82.2C237.027 83.096 238.243 83.7147 239.523 84.056C240.803 84.3973 242.104 84.568 243.427 84.568C245.774 84.568 247.587 84.0987 248.867 83.16C250.147 82.2213 250.787 80.7707 250.787 78.808C250.787 77.3573 250.403 76.2267 249.635 75.416C248.867 74.6053 247.715 73.8587 246.179 73.176C244.643 72.4507 242.744 71.5547 240.483 70.488C237.795 69.208 235.854 67.8853 234.659 66.52C233.464 65.112 232.867 63.2347 232.867 60.888C232.867 59.0107 233.4 57.2827 234.467 55.704C235.576 54.1253 237.027 52.8667 238.819 51.928C240.654 50.9467 242.638 50.456 244.771 50.456C246.606 50.456 248.291 50.6907 249.827 51.16C251.363 51.5867 252.835 52.1627 254.243 52.888L254.755 61.272H253.731L250.787 55.64C249.038 54.232 247.075 53.528 244.899 53.528C242.851 53.528 241.23 54.04 240.035 55.064C238.883 56.0453 238.307 57.3893 238.307 59.096C238.307 60.2053 238.584 61.144 239.139 61.912C239.694 62.6373 240.547 63.3413 241.699 64.024C242.894 64.664 244.408 65.432 246.243 66.328C248.632 67.48 250.552 68.5467 252.003 69.528C253.454 70.5093 254.499 71.6187 255.139 72.856C255.822 74.0507 256.163 75.5653 256.163 77.4C256.163 79.4053 255.587 81.176 254.435 82.712C253.326 84.248 251.79 85.464 249.827 86.36C247.864 87.2133 245.646 87.64 243.171 87.64ZM282.406 87.64C278.822 87.64 275.643 86.8507 272.87 85.272C270.097 83.6507 267.899 81.4533 266.278 78.68C264.699 75.864 263.91 72.664 263.91 69.08C263.91 65.496 264.699 62.296 266.278 59.48C267.899 56.664 270.097 54.4667 272.87 52.888C275.643 51.2667 278.822 50.456 282.406 50.456C285.99 50.456 289.169 51.2667 291.942 52.888C294.758 54.4667 296.955 56.664 298.534 59.48C300.155 62.296 300.966 65.496 300.966 69.08C300.966 72.664 300.155 75.864 298.534 78.68C296.955 81.4533 294.758 83.6507 291.942 85.272C289.169 86.8507 285.99 87.64 282.406 87.64ZM283.43 84.44C286.886 84.44 289.595 83.1813 291.558 80.664C293.521 78.1467 294.502 74.8187 294.502 70.68C294.502 67.3093 293.947 64.344 292.838 61.784C291.771 59.224 290.257 57.24 288.294 55.832C286.331 54.3813 284.091 53.656 281.574 53.656C278.161 53.656 275.43 54.9147 273.382 57.432C271.377 59.9067 270.374 63.192 270.374 67.288C270.374 70.7013 270.929 73.688 272.038 76.248C273.147 78.808 274.683 80.8133 276.646 82.264C278.609 83.7147 280.87 84.44 283.43 84.44ZM328.435 87.64C325.491 87.64 322.845 87.1707 320.499 86.232C318.195 85.2507 316.381 83.6933 315.059 81.56C313.736 79.384 313.075 76.5253 313.075 72.984V54.296L308.403 52.184V51.16H324.083V52.184L319.411 54.296V72.664C319.411 76.9307 320.349 79.896 322.227 81.56C324.104 83.224 326.621 84.056 329.779 84.056C331.613 84.056 333.277 83.7147 334.771 83.032C336.307 82.3067 337.523 81.2187 338.419 79.768C339.315 78.2747 339.763 76.376 339.763 74.072V54.168L334.387 52.184V51.16H348.083V52.184L343.539 54.232V73.112C343.539 76.568 342.899 79.3627 341.619 81.496C340.339 83.6293 338.568 85.1867 336.307 86.168C334.045 87.1493 331.421 87.64 328.435 87.64Z" fill="black"/>
<path d="M71.664 93.64C68.592 93.64 65.7333 93.128 63.088 92.104C60.4853 91.08 58.224 89.6507 56.304 87.816C54.384 85.9387 52.8693 83.7413 51.76 81.224C50.6933 78.7067 50.16 75.9547 50.16 72.968C50.16 69.6827 50.7573 66.6533 51.952 63.88C53.1893 61.1067 54.8747 58.696 57.008 56.648C59.1413 54.5573 61.5947 52.9573 64.368 51.848C67.1413 50.696 70.1067 50.12 73.264 50.12C75.5253 50.12 77.4453 50.248 79.024 50.504C80.6027 50.76 82.0107 51.1227 83.248 51.592C84.528 52.0613 85.7653 52.5947 86.96 53.192L87.344 63.944H86.32L81.712 56.264C80.048 55.1547 78.6187 54.3867 77.424 53.96C76.2293 53.5333 74.8427 53.32 73.264 53.32C70.1067 53.32 67.2907 54.0453 64.816 55.496C62.3413 56.9467 60.4 58.952 58.992 61.512C57.584 64.072 56.88 66.9947 56.88 70.28C56.88 74.4187 57.6267 77.96 59.12 80.904C60.6133 83.848 62.5973 86.1093 65.072 87.688C67.5893 89.224 70.4053 89.992 73.52 89.992C74.7573 89.992 75.9733 89.928 77.168 89.8C78.4053 89.6293 79.6427 89.3307 80.88 88.904V77.96L75.184 75.336V74.312H92.08V75.336L87.6 78.152V88.264C86.32 89.3733 84.784 90.3333 82.992 91.144C81.2 91.912 79.3227 92.5307 77.36 93C75.3973 93.4267 73.4987 93.64 71.664 93.64ZM354.778 93V91.976L359.962 89.416V54.344L354.778 51.784V50.76H372.506V51.784L366.682 54.344V89.48H381.85L386.394 78.472H387.418V93H354.778Z" fill="black"/>
<path d="M138.248 131.24L129.32 101.864L125.672 100.088V99.32H138.584V100.088L134.504 101.864L140.36 122.12H140.648L148.952 99.08H150.968L159.416 122.12H159.704L165.512 101.912L161.432 100.088V99.32H172.088V100.088L168.872 101.816L159.848 131.24H157.88L149.24 108.248H148.904L140.168 131.24H138.248ZM199.838 131V130.232L203.006 128.648V106.472L199.838 104.888V104.12H211.118V104.888L207.806 106.472V128.648L211.118 130.232V131H199.838ZM241.083 131V130.232L244.587 128.648V106.472L241.083 104.888V104.12H252.795V104.888L249.339 106.472V128.648L252.795 130.232V131H241.083ZM262.203 131L249.339 117.32L260.475 106.232L257.451 104.888V104.12H267.099V104.888L264.363 105.944L254.043 115.832L266.427 128.936L269.787 130.232V131H262.203ZM298.322 131V130.232L301.49 128.648V106.472L298.322 104.888V104.12H309.602V104.888L306.29 106.472V128.648L309.602 130.232V131H298.322Z" fill="black"/>
<path d="M94 93H344" stroke="url(#paint0_linear_155_754)" stroke-opacity="0.5" stroke-width="2" stroke-linecap="round"/>
<defs>
<filter id="filter0_f_155_754" x="0.159973" y="0.119995" width="437.258" height="143.52" filterUnits="userSpaceOnUse" color-interpolation-filters="sRGB">
<feFlood flood-opacity="0" result="BackgroundImageFix"/>
<feBlend mode="normal" in="SourceGraphic" in2="BackgroundImageFix" result="shape"/>
<feGaussianBlur stdDeviation="25" result="effect1_foregroundBlur_155_754"/>
</filter>
<filter id="filter1_f_155_754" x="75.672" y="49.08" width="283.93" height="132.16" filterUnits="userSpaceOnUse" color-interpolation-filters="sRGB">
<feFlood flood-opacity="0" result="BackgroundImageFix"/>
<feBlend mode="normal" in="SourceGraphic" in2="BackgroundImageFix" result="shape"/>
<feGaussianBlur stdDeviation="25" result="effect1_foregroundBlur_155_754"/>
</filter>
<filter id="filter2_f_155_754" x="47.84" y="0.455994" width="350.242" height="137.184" filterUnits="userSpaceOnUse" color-interpolation-filters="sRGB">
<feFlood flood-opacity="0" result="BackgroundImageFix"/>
<feBlend mode="normal" in="SourceGraphic" in2="BackgroundImageFix" result="shape"/>
<feGaussianBlur stdDeviation="25" result="effect1_foregroundBlur_155_754"/>
</filter>
<filter id="filter3_f_155_754" x="72.84" y="25.456" width="300.242" height="87.184" filterUnits="userSpaceOnUse" color-interpolation-filters="sRGB">
<feFlood flood-opacity="0" result="BackgroundImageFix"/>
<feBlend mode="normal" in="SourceGraphic" in2="BackgroundImageFix" result="shape"/>
<feGaussianBlur stdDeviation="12.5" result="effect1_foregroundBlur_155_754"/>
</filter>
<filter id="filter4_f_155_754" x="25.16" y="25.12" width="387.258" height="93.52" filterUnits="userSpaceOnUse" color-interpolation-filters="sRGB">
<feFlood flood-opacity="0" result="BackgroundImageFix"/>
<feBlend mode="normal" in="SourceGraphic" in2="BackgroundImageFix" result="shape"/>
<feGaussianBlur stdDeviation="12.5" result="effect1_foregroundBlur_155_754"/>
</filter>
<filter id="filter5_f_155_754" x="100.672" y="74.08" width="233.93" height="82.16" filterUnits="userSpaceOnUse" color-interpolation-filters="sRGB">
<feFlood flood-opacity="0" result="BackgroundImageFix"/>
<feBlend mode="normal" in="SourceGraphic" in2="BackgroundImageFix" result="shape"/>
<feGaussianBlur stdDeviation="12.5" result="effect1_foregroundBlur_155_754"/>
</filter>
<linearGradient id="paint0_linear_155_754" x1="94" y1="93.5" x2="344" y2="93.5" gradientUnits="userSpaceOnUse">
<stop stop-opacity="0"/>
<stop offset="0.5"/>
<stop offset="1" stop-opacity="0"/>
</linearGradient>
</defs>
</svg>
